HIERARCHY
ROOT Hips
{
	OFFSET 0.00000 0.00000 0.00000
	CHANNELS 6 Xposition Yposition Zposition Zrotation Yrotation Xrotation 
	JOINT LHipJoint
	{
		OFFSET 0 0 0
		CHANNELS 3 Zrotation Yrotation Xrotation
		JOINT LeftUpLeg
		{
			OFFSET 1.52977 -1.71332 0.88991
			CHANNELS 3 Zrotation Yrotation Xrotation
			JOINT LeftLeg
			{
				OFFSET 2.23949 -6.15296 0.00000
				CHANNELS 3 Zrotation Yrotation Xrotation
				JOINT LeftFoot
				{
					OFFSET 2.68396 -7.37412 0.00000
					CHANNELS 3 Zrotation Yrotation Xrotation
					JOINT LeftToeBase
					{
						OFFSET 0.20538 -0.56428 2.52710
						CHANNELS 3 Zrotation Yrotation Xrotation
						End Site
						{
							OFFSET 0.00000 -0.00000 1.29919
						}
					}
				}
			}
		}
	}
	JOINT RHipJoint
	{
		OFFSET 0 0 0
		CHANNELS 3 Zrotation Yrotation Xrotation
		JOINT RightUpLeg
		{
			OFFSET -1.45689 -1.71333 0.88991
			CHANNELS 3 Zrotation Yrotation Xrotation
			JOINT RightLeg
			{
				OFFSET -2.36700 -6.50329 0.00000
				CHANNELS 3 Zrotation Yrotation Xrotation
				JOINT RightFoot
				{
					OFFSET -2.69814 -7.41308 0.00000
					CHANNELS 3 Zrotation Yrotation Xrotation
					JOINT RightToeBase
					{
						OFFSET -0.18734 -0.51471 2.37479
						CHANNELS 3 Zrotation Yrotation Xrotation
						End Site
						{
							OFFSET -0.00000 -0.00000 1.22113
						}
					}
				}
			}
		}
	}
	JOINT LowerBack
	{
		OFFSET 0 0 0
		CHANNELS 3 Zrotation Yrotation Xrotation
		JOINT Spine
		{
			OFFSET 0.04294 2.14638 -0.31163
			CHANNELS 3 Zrotation Yrotation Xrotation
			JOINT Spine1
			{
				OFFSET -0.00400 2.17216 0.01486
				CHANNELS 3 Zrotation Yrotation Xrotation
				JOINT Neck
				{
					OFFSET 0 0 0
					CHANNELS 3 Zrotation Yrotation Xrotation
					JOINT Neck1
					{
						OFFSET 0.03869 1.76598 0.14916
						CHANNELS 3 Zrotation Yrotation Xrotation
						JOINT Head
						{
							OFFSET -0.00760 1.75513 -0.18948
							CHANNELS 3 Zrotation Yrotation Xrotation
							End Site
							{
								OFFSET -0.00601 1.82444 -0.08310
							}
						}
					}
				}
				JOINT LeftShoulder
				{
					OFFSET 0 0 0
					CHANNELS 3 Zrotation Yrotation Xrotation
					JOINT LeftArm
					{
						OFFSET 3.73696 0.92058 0.01733
						CHANNELS 3 Zrotation Yrotation Xrotation
						JOINT LeftForeArm
						{
							OFFSET 5.22771 -0.00000 0.00000
							CHANNELS 3 Zrotation Yrotation Xrotation
							JOINT LeftHand
							{
								OFFSET 3.45251 -0.00000 0.00000
								CHANNELS 3 Zrotation Yrotation Xrotation
								JOINT LeftFingerBase
								{
									OFFSET 0 0 0
									CHANNELS 3 Zrotation Yrotation Xrotation
									JOINT LeftHandIndex1
									{
										OFFSET 0.55212 -0.00000 0.00000
										CHANNELS 3 Zrotation Yrotation Xrotation
										End Site
										{
											OFFSET 0.44513 -0.00000 0.00000
										}
									}
								}
								JOINT LThumb
								{
									OFFSET 0 0 0
									CHANNELS 3 Zrotation Yrotation Xrotation
									End Site
									{
										OFFSET 0.45193 -0.00000 0.45193
									}
								}
							}
						}
					}
				}
				JOINT RightShoulder
				{
					OFFSET 0 0 0
					CHANNELS 3 Zrotation Yrotation Xrotation
					JOINT RightArm
					{
						OFFSET -3.63819 0.83094 -0.13694
						CHANNELS 3 Zrotation Yrotation Xrotation
						JOINT RightForeArm
						{
							OFFSET -5.23980 -0.00000 -0.00000
							CHANNELS 3 Zrotation Yrotation Xrotation
							JOINT RightHand
							{
								OFFSET -3.48042 -0.00000 -0.00000
								CHANNELS 3 Zrotation Yrotation Xrotation
								JOINT RightFingerBase
								{
									OFFSET 0 0 0
									CHANNELS 3 Zrotation Yrotation Xrotation
									JOINT RightHandIndex1
									{
										OFFSET -0.61871 -0.00000 0.00000
										CHANNELS 3 Zrotation Yrotation Xrotation
										End Site
										{
											OFFSET -0.49882 -0.00000 0.00000
										}
									}
								}
								JOINT RThumb
								{
									OFFSET 0 0 0
									CHANNELS 3 Zrotation Yrotation Xrotation
									End Site
									{
										OFFSET -0.50644 -0.00000 0.50644
									}
								}
							}
						}
					}
				}
			}
		}
	}
}
MOTION
Frames: 16
Frame Time: .0083333
-37.1837 17.3784 -5.8515 0 0 0 0 0 0 -21 0 0 0 0 0 0 0 0 0 0 0 0 0 0 21 0 0 0 0 0 0 0 0 0 0 0 0 0 0 0 0 0 0 0 0 0 0 -16 0 0 21 0 0 11 0 0 0 -8 0 0 0 0 0 0 0 0 0 0 0 0 0 0 0 0 0 0 0 0 8 0 0 0 0 0 0 0 0 0 0 0 0 0 0 0 0 0
-37.1837 17.3784 -5.8515 -95.8147 87.0741 -97.2321 0.0000 0.0000 0.0000 -17.1110 7.7329 3.5557 0.8517 5.8858 16.4535 0.1792 -2.5796 -7.5211 0.2056 -2.9194 -8.0545 0.0000 0.0000 0.0000 23.6996 2.7400 -4.0399 -3.3220 -11.1989 32.9536 -0.9369 -0.0666 -18.3240 -0.0002 -0.0841 0.2312 2.2315 -0.6916 -1.8524 -0.1454 -0.9818 1.4316 -1.4384 -0.4480 2.4681 0.9742 -0.7057 -7.3054 2.2183 -1.2566 10.3550 0.5034 -0.4318 4.7786 -0.0000 0.0000 0.0000 -89.9827 -0.4755 14.1826 9.7504 -16.3481 -1.4039 -0.0000 0.0000 -10.5856 20.3975 20.4273 7.3946 -7.1250 0.0000 -0.0000 -8.2289 51.4676 -1.3183 -0.0000 0.0000 0.0000 91.8564 -2.1575 19.1333 -11.9876 19.7861 -2.0981 0.0000 0.0000 5.2441 -20.0618 -8.0653 2.9331 7.1250 -0.0000 -0.0000 5.8522 -38.4974 0.9411
-37.1618 17.4389 -5.8543 -95.3209 86.9820 -96.7984 0.0000 0.0000 0.0000 -16.9571 7.7374 3.4315 0.8786 5.9758 16.7141 0.1365 -2.1440 -6.5645 0.2367 -3.1311 -8.6440 0.0000 0.0000 0.0000 23.6325 2.4293 -4.0056 -3.2822 -11.1384 32.7482 -0.7901 -0.4163 -16.9530 -0.0010 0.2002 -0.5500 2.3619 -0.6864 -1.9022 -0.1285 -0.9805 1.4405 -1.4949 -0.4447 2.5036 0.9689 -0.6992 -7.3331 2.2743 -1.2613 10.9130 0.4677 -0.4192 4.4814 0.0000 -0.0000 0.0000 -89.9696 -0.6036 13.9185 9.6325 -16.1627 -1.3709 -0.0000 0.0000 -10.3464 20.3923 20.5020 7.4181 -7.1250 0.0000 -0.0000 -8.2587 51.5437 -1.3387 0.0000 -0.0000 0.0000 91.8844 -2.0988 18.9214 -11.8938 19.6451 -2.0664 0.0000 0.0000 5.4878 -19.9248 -7.9598 2.8736 7.1250 -0.0000 -0.0000 5.9556 -38.3762 0.9756
-37.1401 17.5006 -5.8566 -93.0117 86.8504 -94.5115 0.0000 0.0000 0.0000 -16.8003 7.6352 3.4311 0.8858 5.9994 16.7828 0.0993 -1.4186 -5.6256 0.3165 -3.6164 -9.9999 0.0000 0.0000 0.0000 23.6397 2.3134 -4.0322 -3.2646 -11.1115 32.6570 -0.6774 -0.6192 -15.7867 -0.0003 0.1061 -0.2915 2.5056 -0.6674 -1.9762 -0.0701 -0.9628 1.4373 -1.5158 -0.4333 2.5416 0.9068 -0.6745 -7.4362 2.2929 -1.2276 11.1600 0.4853 -0.3991 4.5746 0.0000 -0.0000 0.0000 -89.9998 -0.6509 13.7205 9.5830 -16.0846 -1.3571 -0.0000 0.0000 -10.2405 20.3432 20.3108 7.3336 -7.1250 0.0000 -0.0000 -8.2444 51.3380 -1.2945 0.0000 -0.0000 0.0000 91.8547 -2.0804 18.9666 -11.8646 19.6013 -2.0566 0.0000 0.0000 5.4269 -20.0270 -7.9386 2.8820 7.1250 -0.0000 -0.0000 5.8655 -38.3611 0.9629
-37.1268 17.5584 -5.8561 -91.6151 86.8013 -93.0605 0.0000 0.0000 0.0000 -16.6844 7.6199 3.2050 0.8924 6.0212 16.8459 0.0609 -0.8829 -4.4320 0.3342 -3.7152 -10.2769 0.0000 0.0000 0.0000 23.5554 2.2081 -4.2261 -3.2496 -11.0885 32.5791 -0.5596 -1.0122 -14.5333 -0.0002 0.0850 -0.2335 2.5542 -0.6369 -2.0100 -0.0627 -0.9241 1.3491 -1.5337 -0.4152 2.4710 0.9975 -0.6449 -7.4319 2.2263 -1.1915 11.3170 0.4523 -0.3783 4.6210 -0.0000 0.0000 0.0000 -89.9555 -0.6250 13.4437 9.4929 -15.9425 -1.3323 -0.0000 0.0000 -10.1985 20.0669 19.5088 6.9552 -7.1250 0.0000 -0.0000 -8.2598 50.4641 -1.1189 -0.0000 0.0000 0.0000 91.8787 -2.1410 18.8781 -11.8363 19.5587 -2.0472 0.0000 0.0000 5.5792 -19.8557 -7.9338 2.8536 7.1250 -0.0000 -0.0000 6.0111 -38.3440 0.9896
-37.1100 17.6179 -5.8561 -89.6432 86.7416 -91.0623 0.0000 0.0000 0.0000 -16.5762 7.5808 3.1017 0.8913 6.0176 16.8356 0.0326 -0.2156 -3.3368 0.3478 -3.7893 -10.4846 0.0000 0.0000 0.0000 23.4938 2.1535 -4.3639 -3.2411 -11.0755 32.5349 -0.4548 -1.4389 -13.3424 -0.0001 0.0505 -0.1388 2.6076 -0.6041 -2.0635 -0.0414 -0.8836 1.2963 -1.5404 -0.3952 2.4481 1.0559 -0.6054 -7.5000 2.1695 -1.1418 11.5153 0.4282 -0.3508 4.6924 -0.0000 0.0000 0.0000 -89.9354 -0.6185 13.2531 9.4383 -15.8562 -1.3173 -0.0000 0.0000 -10.1796 19.8820 19.0121 6.7191 -7.1250 0.0000 -0.0000 -8.2871 49.9214 -1.0116 -0.0000 0.0000 0.0000 91.8785 -2.1685 18.8476 -11.8147 19.5262 -2.0399 0.0000 0.0000 5.6406 -19.7684 -7.9100 2.8315 7.1250 -0.0000 -0.0000 6.0826 -38.3129 1.0061
-37.0945 17.6773 -5.8553 -87.6382 86.7153 -89.0059 0.0000 0.0000 0.0000 -16.5064 7.5391 3.0063 0.8809 5.9833 16.7359 0.0106 0.5151 -2.2101 0.3409 -3.7516 -10.3790 0.0000 0.0000 0.0000 23.4045 2.1551 -4.5519 -3.2413 -11.0757 32.5358 -0.3605 -1.9255 -12.2107 -0.0001 -0.0480 0.1319 2.6116 -0.5706 -2.1203 -0.0284 -0.8405 1.2323 -1.5278 -0.3749 2.4163 1.1298 -0.5613 -7.5777 2.1009 -1.0864 11.7081 0.3983 -0.3206 4.7637 0.0000 -0.0000 0.0000 -89.9090 -0.5805 13.1608 9.4225 -15.8312 -1.3130 -0.0000 0.0000 -10.2594 19.7028 18.5921 6.5135 -7.1250 0.0000 -0.0000 -8.3345 49.4596 -0.9222 0.0000 -0.0000 0.0000 91.8726 -2.2070 18.8515 -11.8108 19.5203 -2.0386 0.0000 0.0000 5.6628 -19.6795 -7.8628 2.8011 7.1250 -0.0000 -0.0000 6.1521 -38.2568 1.0262
-37.0801 17.7361 -5.8542 -85.6623 86.7278 -86.9624 0.0000 0.0000 0.0000 -16.4795 7.4961 2.8950 0.8678 5.9397 16.6095 -0.0041 1.2801 -1.0913 0.3126 -3.5943 -9.9379 0.0000 0.0000 0.0000 23.2772 2.1821 -4.7655 -3.2430 -11.0784 32.5448 -0.2749 -2.4762 -11.1318 -0.0011 -0.2110 0.5798 2.5673 -0.5383 -2.1744 -0.0283 -0.7969 1.1615 -1.5013 -0.3553 2.3765 1.2067 -0.5229 -7.6534 2.0322 -1.0389 11.8911 0.3674 -0.2944 4.8319 -0.0000 0.0000 0.0000 -89.8736 -0.5119 13.1943 9.4536 -15.8804 -1.3215 -0.0000 0.0000 -10.4422 19.5535 18.3525 6.3809 -7.1250 0.0000 -0.0000 -8.4076 49.1893 -0.8742 -0.0000 0.0000 0.0000 91.8644 -2.2540 18.8894 -11.8282 19.5465 -2.0445 0.0000 0.0000 5.6472 -19.5850 -7.8221 2.7722 7.1250 -0.0000 -0.0000 6.2274 -38.2074 1.0465
-37.0665 17.7940 -5.8531 -83.6429 86.7699 -84.8659 0.0000 0.0000 0.0000 -16.4893 7.4557 2.7973 0.8500 5.8800 16.4367 -0.0123 2.0924 0.0040 0.2771 -3.3859 -9.3550 0.0000 0.0000 0.0000 23.1165 2.2216 -5.0044 -3.2486 -11.0870 32.5740 -0.1977 -3.0744 -10.1138 -0.0045 -0.4354 1.1965 2.4877 -0.5098 -2.2283 -0.0373 -0.7572 1.0934 -1.4645 -0.3380 2.3392 1.2724 -0.4920 -7.7336 1.9713 -1.0012 12.0632 0.3402 -0.2732 4.8978 0.0000 0.0000 0.0000 -89.8342 -0.4207 13.3520 9.5342 -16.0076 -1.3436 -0.0000 0.0000 -10.7211 19.4502 18.3101 6.3306 -7.1250 0.0000 -0.0000 -8.4944 49.1299 -0.8708 0.0000 0.0000 0.0000 91.8494 -2.2983 18.9715 -11.8679 19.6062 -2.0577 0.0000 0.0000 5.5815 -19.5072 -7.7897 2.7490 7.1250 -0.0000 -0.0000 6.2894 -38.1680 1.0631
-37.0539 17.8503 -5.8524 -81.9582 86.8332 -83.1010 0.0000 0.0000 0.0000 -16.5196 7.4228 2.7007 0.8295 5.8106 16.2358 -0.0144 2.9295 1.0791 0.2295 -3.0837 -8.5118 0.0000 0.0000 0.0000 22.9281 2.2318 -5.2694 -3.2562 -11.0987 32.6136 -0.1271 -3.7224 -9.1497 -0.0112 -0.6836 1.8785 2.3885 -0.4922 -2.2736 -0.0535 -0.7310 1.0290 -1.4245 -0.3276 2.3005 1.3179 -0.4707 -7.8051 1.9293 -0.9756 12.2116 0.3213 -0.2582 4.9552 0.0000 0.0000 0.0000 -89.7908 -0.3070 13.6368 9.6674 -16.2177 -1.3806 -0.0000 0.0000 -11.0890 19.4046 18.5014 6.3779 -7.1250 0.0000 -0.0000 -8.5946 49.3200 -0.9217 0.0000 0.0000 0.0000 91.8293 -2.3405 19.0857 -11.9278 19.6962 -2.0779 0.0000 0.0000 5.4827 -19.4479 -7.7513 2.7266 7.1250 -0.0000 -0.0000 6.3348 -38.1235 1.0778
-37.0420 17.9039 -5.8523 -80.3423 86.8849 -81.4119 0.0000 0.0000 0.0000 -16.5391 7.3963 2.6182 0.8087 5.7390 16.0289 -0.0120 3.7969 2.0898 0.1831 -2.7562 -7.6007 0.0000 0.0000 0.0000 22.7449 2.2135 -5.5388 -3.2633 -11.1095 32.6502 -0.0618 -4.4042 -8.2223 -0.0218 -0.9538 2.6218 2.3063 -0.4807 -2.3037 -0.0679 -0.7131 0.9719 -1.3925 -0.3209 2.2602 1.3426 -0.4600 -7.8678 1.9018 -0.9635 12.3341 0.3095 -0.2503 5.0034 0.0000 0.0000 0.0000 -89.7452 -0.1791 13.9777 9.8332 -16.4782 -1.4273 -0.0000 0.0000 -11.5067 19.3792 18.7782 6.4601 -7.1250 0.0000 -0.0000 -8.7023 49.6011 -0.9939 0.0000 0.0000 0.0000 91.8016 -2.3756 19.2282 -12.0068 19.8149 -2.1046 0.0000 0.0000 5.3618 -19.4016 -7.7415 2.7162 7.1250 -0.0000 -0.0000 6.3730 -38.1101 1.0864
-37.0306 17.9547 -5.8530 -78.8834 86.9058 -79.8897 0.0000 0.0000 0.0000 -16.5244 7.3826 2.5362 0.7890 5.6704 15.8310 -0.0069 4.6849 3.0297 0.1312 -2.3344 -6.4307 0.0000 0.0000 0.0000 22.5888 2.1683 -5.8016 -3.2679 -11.1166 32.6741 -0.0008 -5.1174 -7.3293 -0.0368 -1.2385 3.4052 2.2643 -0.4742 -2.3179 -0.0766 -0.7027 0.9218 -1.3773 -0.3173 2.2174 1.3701 -0.4450 -7.9261 1.8766 -0.9457 12.4209 0.2983 -0.2401 5.0398 -0.0000 0.0000 0.0000 -89.6934 -0.0350 14.3732 10.0295 -16.7857 -1.4835 -0.0000 0.0000 -11.9707 19.3789 19.1142 6.5703 -7.1250 0.0000 -0.0000 -8.8059 49.9467 -1.0812 -0.0000 0.0000 0.0000 91.7699 -2.4056 19.3956 -12.1026 19.9583 -2.1372 0.0000 0.0000 5.2195 -19.3843 -7.7612 2.7204 7.1250 -0.0000 -0.0000 6.3903 -38.1296 1.0863
-37.0205 18.0020 -5.8539 -78.0584 86.8805 -79.0072 0.0000 0.0000 0.0000 -16.4532 7.3497 2.4409 0.7726 5.6124 15.6637 -0.0015 5.6007 3.8769 0.0761 -1.7801 -4.8982 0.0000 0.0000 0.0000 22.4904 2.1081 -6.0486 -3.2681 -11.1170 32.6754 0.0561 -5.8643 -6.4966 -0.0574 -1.5454 4.2510 2.2749 -0.4794 -2.3117 -0.0711 -0.7095 0.8782 -1.3774 -0.3215 2.1688 1.3969 -0.4275 -7.9798 1.8513 -0.9243 12.4656 0.2874 -0.2292 5.0625 0.0000 -0.0000 0.0000 -89.6384 0.1145 14.8004 10.2508 -17.1309 -1.5480 -0.0000 0.0000 -12.4593 19.3963 19.5085 6.7059 -7.1250 0.0000 -0.0000 -8.9133 50.3546 -1.1845 0.0000 -0.0000 0.0000 91.7304 -2.4208 19.5811 -12.2096 20.1183 -2.1739 0.0000 0.0000 5.0623 -19.3876 -7.8044 2.7359 7.1250 -0.0000 -0.0000 6.3933 -38.1752 1.0797
-37.0114 18.0455 -5.8551 -77.6940 86.8063 -78.5912 0.0000 0.0000 0.0000 -16.3258 7.2982 2.3317 0.7598 5.5669 15.5329 -0.0001 6.5546 4.5900 0.0269 -1.0586 -2.9101 0.0000 0.0000 0.0000 22.4528 2.0511 -6.2696 -3.2636 -11.1100 32.6516 0.1093 -6.6285 -5.7370 -0.0864 -1.8963 5.2190 2.3406 -0.4908 -2.2857 -0.0523 -0.7260 0.8394 -1.3951 -0.3300 2.1132 1.4210 -0.4103 -8.0182 1.8336 -0.9034 12.4646 0.2793 -0.2190 5.0684 0.0000 0.0000 0.0000 -89.5769 0.2663 15.2481 10.4913 -17.5044 -1.6196 -0.0000 0.0000 -12.9525 19.4363 19.9576 6.8678 -7.1250 0.0000 -0.0000 -9.0200 50.8223 -1.3031 0.0000 0.0000 0.0000 91.6867 -2.4238 19.7842 -12.3270 20.2933 -2.2144 0.0000 0.0000 4.8846 -19.4155 -7.8766 2.7653 7.1250 -0.0000 -0.0000 6.3792 -38.2530 1.0650
-37.0032 18.0853 -5.8563 -77.7627 86.6959 -78.6089 0.0000 0.0000 0.0000 -16.1556 7.2345 2.2054 0.7506 5.5336 15.4370 -0.0045 7.5302 5.1757 0.0013 -0.2340 -0.6431 0.0000 0.0000 0.0000 22.4637 2.0021 -6.4688 -3.2547 -11.0963 32.6053 0.1597 -7.4006 -5.0501 -0.1235 -2.2658 6.2408 2.4469 -0.5078 -2.2499 -0.0231 -0.7509 0.8048 -1.4251 -0.3422 2.0555 1.4384 -0.3958 -8.0332 1.8272 -0.8857 12.4134 0.2756 -0.2111 5.0550 -0.0000 -0.0000 0.0000 -89.5098 0.4146 15.7057 10.7457 -17.8974 -1.6969 -0.0000 0.0000 -13.4372 19.5081 20.4762 7.0648 -7.1250 0.0000 -0.0000 -9.1233 51.3662 -1.4407 -0.0000 -0.0000 0.0000 91.6384 -2.4181 19.9992 -12.4514 20.4782 -2.2577 0.0000 0.0000 4.6834 -19.4615 -7.9486 2.7975 7.1250 -0.0000 -0.0000 6.3497 -38.3318 1.0477
-36.9951 18.1213 -5.8576 -77.8753 86.5649 -78.6827 0.0000 0.0000 0.0000 -15.9640 7.1784 2.0864 0.7432 5.5071 15.3607 -0.0172 8.5158 5.6239 0.0108 0.6700 1.8411 0.0000 0.0000 0.0000 22.5006 1.9621 -6.6357 -3.2432 -11.0788 32.5460 0.2075 -8.1573 -4.4137 -0.1639 -2.6086 7.1908 2.5715 -0.5241 -2.2152 0.0140 -0.7757 0.7881 -1.4573 -0.3538 2.0169 1.4486 -0.3864 -8.0364 1.8269 -0.8743 12.3160 0.2744 -0.2071 5.0253 0.0000 0.0000 0.0000 -89.4434 0.5399 16.1558 11.0068 -18.2986 -1.7780 -0.0000 0.0000 -13.8937 19.6102 21.0191 7.2825 -7.1250 0.0000 -0.0000 -9.2105 51.9400 -1.5850 0.0000 0.0000 0.0000 91.5800 -2.3869 20.2212 -12.5773 20.6648 -2.3020 0.0000 0.0000 4.4656 -19.5146 -8.0089 2.8269 7.1250 -0.0000 -0.0000 6.3124 -38.3990 1.0311
